<?xml version="1.0" encoding="utf-8"?>
<!-- Generator: Adobe Illustrator 27.1.1, SVG Export Plug-In . SVG Version: 6.00 Build 0)  -->
<svg version="1.1" id="Laag_1" xmlns="http://www.w3.org/2000/svg" xmlns:xlink="http://www.w3.org/1999/xlink" x="0px" y="0px"
	 viewBox="0 0 124.3 124.3" style="enable-background:new 0 0 124.3 124.3;" xml:space="preserve">
<style type="text/css">
	.st0{opacity:0.01;}
	.st1{fill:#DC0B10;}
	.st2{fill:#FFFFFF;}
</style>
<g>
	<rect x="0" y="0" class="st0" width="124.3" height="124.3"/>
	<g>
		<g>
			<path class="st1" d="M58.68,9.79L0.54,110.5c-1.54,2.67,0.38,6,3.46,6h116.29c3.08,0,5-3.33,3.46-6L65.61,9.79
				C64.07,7.13,60.22,7.13,58.68,9.79z"/>
			<path class="st2" d="M122.4,110.47L64.97,10.98c-1.25-2.17-4.38-2.17-5.63,0L1.89,110.47c-1.25,2.17,0.31,4.88,2.82,4.88h114.88
				C122.09,115.35,123.66,112.63,122.4,110.47z M118.82,113.68H5.48c-1.56,0-2.54-1.69-1.76-3.04l56.67-98.15
				c0.78-1.35,2.73-1.35,3.51,0l56.67,98.15C121.35,111.99,120.38,113.68,118.82,113.68z"/>
			<path class="st2" d="M61.1,35.39L23.86,99.9c-0.47,0.81,0.12,1.81,1.05,1.81H99.4c0.93,0,1.51-1.01,1.05-1.81L63.2,35.39
				C62.73,34.59,61.57,34.59,61.1,35.39z"/>
		</g>
		<g>
			<path d="M60.14,97.44v-6.56l-0.39-0.69v-1.17l13.58,2.94c0,0,1.11-5.33,5.47-5.17c4.36,0.17,5.75,4.28,5.75,4.28v2.69h3.89
				l1.31-6.56l-6.17-2.89l-4.08-7.22l-17.1-3.86l-6.29,4.94l-14.06-0.53l-1.39,5.14l3.72,2.17c0,0,1.58-4.22,5.44-4.22
				c3.86,0,5.44,5,5.44,5v2.61l-2.19,2.19v6.92H34.44v0.78h58.5v-0.81H60.14z M78.19,77.54l3.25,5.88l-10.25-1.83l1.17-5.21
				L78.19,77.54z M63.44,74.25l7.92,2l-1.38,5.08L57.86,78.7L63.44,74.25z"/>
			<circle cx="49.76" cy="86.46" r="3.97"/>
			<circle cx="78.92" cy="92.63" r="3.97"/>
		</g>
	</g>
</g>
</svg>
