<?xml version="1.0" encoding="utf-8"?>
<!-- Generator: Adobe Illustrator 27.1.1, SVG Export Plug-In . SVG Version: 6.00 Build 0)  -->
<svg version="1.1" id="Laag_1" xmlns="http://www.w3.org/2000/svg" xmlns:xlink="http://www.w3.org/1999/xlink" x="0px" y="0px"
	 viewBox="0 0 124.3 124.3" style="enable-background:new 0 0 124.3 124.3;" xml:space="preserve">
<style type="text/css">
	.st0{fill:#DC0B10;}
	.st1{fill:#FFFFFF;}
</style>
<g>
	<circle class="st0" cx="62.15" cy="62.15" r="62.15"/>
	<path class="st1" d="M62.15,2.94c-32.7,0-59.21,26.51-59.21,59.21c0,32.7,26.51,59.21,59.21,59.21c32.7,0,59.21-26.51,59.21-59.21
		C121.36,29.45,94.85,2.94,62.15,2.94z M62.15,118.11c-30.91,0-55.96-25.05-55.96-55.96S31.25,6.19,62.15,6.19
		c30.91,0,55.96,25.05,55.96,55.96S93.06,118.11,62.15,118.11z"/>
	<circle class="st1" cx="62.15" cy="62.15" r="43.19"/>
	<g>
		<path d="M98.51,55.69c0,0-2.08,0.08-3.73,1.62s-7.35-2.24-7.35-2.24s-1.42-7.78-6.14-4.82c0,0-2.26-4.74-6.17-1.24
			c0,0-2.68-1.96-4.36,0.43c0,0-2.39-2.19-4,1.14c0,0-5.32-0.98-9.53-0.98c-4.21,0-17.85,0-17.85,0s-14.51-0.25-14.51,2.35v11.52
			v4.25L25,71.91c0,0,0.1,1.29,1.64,1.32s9.7,0.23,9.7,0.23l22.04-0.05c0,0,14.18-0.36,20.95-3.36c0,0,5.56,3.56,6.21-2.21
			l6.94-3.52c0,0,1.27-0.52,2.29,0c0,0,2.1,1.5,3.52,1.5c1.42,0,3.02-0.52,3.02-2.92C101.3,60.5,101.8,55.73,98.51,55.69z
			 M68.82,49.63c1.51,0.08,2.03,2.79,2.25,4.24s-1.64,4.31-3.03,0.22C66.65,50,68.82,49.63,68.82,49.63z M25.9,69.32V52.61
			c0-1.94,10.9-1.9,10.9-1.9h21.12c5-0.02,8.92,1.22,8.92,1.22c0.62,4.7,1.8,4.71,2.96,4.71s1.74-1.09,1.74-1.09
			c0.03,0.35,0.85,1.57,0.85,1.57L25.9,69.32z M74.37,57.11c0,0-1.86,0.38-2.9-4.31s3.38-3.61,3.69-1.64
			C75.48,53.14,76.17,57,74.37,57.11z M75.93,52.31c-0.04-4.19,1.72-4,2.94-3.44s1.76,2.21,1.67,4.33s-0.18,3.79-1.93,4.1
			C78.61,57.29,75.97,56.5,75.93,52.31z M83.6,69.95c-0.9,0.76-3.28,0.57-4.6-1.36c0,0-2.54-3.47-0.67-4.64
			c1.88-1.17,4.51,0.68,5.49,2.39S84.5,69.18,83.6,69.95z M85.07,59.18c0,0-3.35-0.82-3.72-4.56c-0.38-3.74,1.72-5.51,4.06-2.17
			C87.73,55.81,86.05,59.58,85.07,59.18z"/>
		<g>
			<g>
				<path d="M39.28,53.69h-1.21l-1.92,8.12h1.04l0.35-1.69h2.17l0.38,1.69h1.02L39.28,53.69z M37.86,58.94l0.73-3.6l0.9,3.6H37.86z"
					/>
				<polygon points="45.38,61.81 41.59,61.81 41.59,53.69 42.53,53.69 42.53,60.59 45.38,60.59 				"/>
				<path d="M49.5,59.18c0,0-0.22,1.53-1.31,1.53s-1.58-1.58-1.58-1.58s-0.89-4.02,1.44-4.49c0,0,1.44,0.4,1.44,1.46h1
					c0,0-0.29-2.74-2.42-2.74s-2.7,2.46-2.7,4.31s0.76,4.24,2.77,4.24c2.01,0,2.35-2.74,2.35-2.74L49.5,59.18z"/>
			</g>
			<g>
				<polygon points="29.15,61.91 31.46,53.81 32.07,53.81 29.78,61.91 				"/>
				<path d="M28.88,53.91c0,0-1.01,0.02-1.01,2.22c0,2.2,1.01,2.19,1.01,2.19s1.01,0.01,1.01-2.19
					C29.89,53.93,28.88,53.91,28.88,53.91z M28.88,57.69c0,0-0.72,0.01-0.72-1.56c0-1.57,0.72-1.58,0.72-1.58s0.72,0.01,0.72,1.58
					C29.6,57.69,28.88,57.69,28.88,57.69z"/>
				<path d="M32.38,57.61c0,0-1.01,0.02-1.01,2.22c0,2.2,1.01,2.19,1.01,2.19s1.01,0.01,1.01-2.19
					C33.39,57.63,32.38,57.61,32.38,57.61z M32.38,61.38c0,0-0.72,0.01-0.72-1.56c0-1.57,0.72-1.58,0.72-1.58s0.72,0.01,0.72,1.58
					C33.1,61.39,32.38,61.38,32.38,61.38z"/>
			</g>
		</g>
	</g>
</g>
</svg>
