<?xml version="1.0" encoding="utf-8"?>
<!-- Generator: Adobe Illustrator 27.1.1, SVG Export Plug-In . SVG Version: 6.00 Build 0)  -->
<svg version="1.1" id="Laag_1" xmlns="http://www.w3.org/2000/svg" xmlns:xlink="http://www.w3.org/1999/xlink" x="0px" y="0px"
	 viewBox="0 0 124.3 124.3" style="enable-background:new 0 0 124.3 124.3;" xml:space="preserve">
<style type="text/css">
	.st0{fill:#005BF0;}
	.st1{fill:#FFFFFF;}
</style>
<g>
	<circle class="st0" cx="62.15" cy="62.15" r="62.15"/>
	<path class="st1" d="M62.15,1.91c-33.27,0-60.24,26.97-60.24,60.24c0,33.27,26.97,60.24,60.24,60.24
		c33.27,0,60.24-26.97,60.24-60.24C122.39,28.88,95.42,1.91,62.15,1.91z M62.15,119.08c-31.44,0-56.93-25.49-56.93-56.93
		S30.71,5.22,62.15,5.22c31.44,0,56.93,25.49,56.93,56.93S93.59,119.08,62.15,119.08z"/>
	<path class="st1" d="M90.24,51.58c-2.14,0-4.19,0.4-6.09,1.1l-5-9.9l2.59-5.43h4.68v-3.46H72.33c-0.95,0-1.73,0.77-1.73,1.73
		s0.77,1.73,1.73,1.73h5.58l-1.72,3.61h-30.5l2.18-6.16h0c0.26-0.63,0.88-1.07,1.6-1.07h6.39v-3.46H48.7c-0.01,0-0.02,0-0.03,0
		c-1.83,0-3.35,1.22-3.86,2.87l-0.02-0.01l-6.73,18.98c-1.34-0.33-2.74-0.52-4.18-0.52c-9.78,0-17.7,7.93-17.7,17.7
		c0,9.78,7.93,17.7,17.7,17.7c9.78,0,17.7-7.93,17.7-17.7c0-7.11-4.21-13.23-10.26-16.04l1.85-5.21l20.58,22.96l0,0v0h8.87
		c0.87,8.96,8.42,15.97,17.61,15.97c9.78,0,17.7-7.93,17.7-17.7C107.94,59.51,100.02,51.58,90.24,51.58z M48.13,69.3
		c0,7.87-6.38,14.24-14.24,14.24S19.64,77.17,19.64,69.3s6.38-14.24,14.24-14.24c1.04,0,2.05,0.12,3.02,0.33l-4.75,13.42l0.01,0
		c-0.07,0.19-0.11,0.38-0.11,0.59c0,0.95,0.77,1.73,1.73,1.73c0.76,0,1.4-0.49,1.63-1.17l0.01,0l4.76-13.42
		C44.88,58.86,48.13,63.7,48.13,69.3z M44.56,44.41h29.98L64.12,66.24L44.56,44.41z M77.27,46.72l3.77,7.46
		c-4.62,2.83-7.86,7.7-8.41,13.37h-5.31L77.27,46.72z M82.6,57.28l5.19,10.28H76.11C76.64,63.23,79.09,59.51,82.6,57.28z
		 M90.24,83.53c-7.28,0-13.28-5.47-14.13-12.52H90.6c0.95,0,1.73-0.77,1.73-1.73c0-0.3-0.08-0.58-0.22-0.83l0.01,0l-6.4-12.67
		c1.42-0.48,2.94-0.75,4.53-0.75c7.87,0,14.24,6.38,14.24,14.24S98.11,83.53,90.24,83.53z"/>
</g>
</svg>
