<?xml version="1.0" encoding="utf-8"?>
<!-- Generator: Adobe Illustrator 27.1.1, SVG Export Plug-In . SVG Version: 6.00 Build 0)  -->
<svg version="1.1" id="Laag_1" xmlns="http://www.w3.org/2000/svg" xmlns:xlink="http://www.w3.org/1999/xlink" x="0px" y="0px"
	 viewBox="0 0 124.3 124.3" style="enable-background:new 0 0 124.3 124.3;" xml:space="preserve">
<style type="text/css">
	.st0{fill:#005BF0;}
	.st1{fill:#FFFFFF;}
</style>
<g>
	<circle class="st0" cx="62.15" cy="62.15" r="62.15"/>
	<path class="st1" d="M62.15,1.91c-33.27,0-60.24,26.97-60.24,60.24c0,33.27,26.97,60.24,60.24,60.24
		c33.27,0,60.24-26.97,60.24-60.24C122.39,28.88,95.42,1.91,62.15,1.91z M62.15,120.72c-32.35,0-58.57-26.22-58.57-58.57
		S29.8,3.58,62.15,3.58c32.35,0,58.57,26.22,58.57,58.57S94.5,120.72,62.15,120.72z"/>
	<g>
		<g>
			<path class="st1" d="M56,30.56c4.42,0.36,5.67,4.33,5.67,4.33l9.81,22.22l-2.92,1.03L59.5,43.31l-1.28,15.56l5.92,43.06h-4.61
				l-9.33-33.06l-12.75,32.94H33.3l10.14-46.53l0.25-12.17l-8.01,15.86L33.05,58l7.89-23.75c0,0,1.64-4.08,6.75-4.17L56,30.56z"/>
			<circle class="st1" cx="52.96" cy="22.14" r="6.79"/>
		</g>
		<g>
			<polygon class="st1" points="69.32,59.42 74.32,67.5 78.94,69.21 78.69,78.42 72.86,101.92 76.28,101.92 83.36,86.84 
				91.44,101.17 94.23,100.04 86.98,79.42 88.48,72.75 95.28,79.04 97.57,77.29 86.32,64.38 76.78,63.84 72.03,58.59 			"/>
			<circle class="st1" cx="85.07" cy="58.59" r="4.99"/>
		</g>
	</g>
</g>
</svg>
