<?xml version="1.0" encoding="utf-8"?>
<!-- Generator: Adobe Illustrator 27.1.1, SVG Export Plug-In . SVG Version: 6.00 Build 0)  -->
<svg version="1.1" id="Laag_1" xmlns="http://www.w3.org/2000/svg" xmlns:xlink="http://www.w3.org/1999/xlink" x="0px" y="0px"
	 viewBox="0 0 124.3 124.3" style="enable-background:new 0 0 124.3 124.3;" xml:space="preserve">
<style type="text/css">
	.st0{fill:#DC0B10;}
	.st1{fill:#FFFFFF;}
</style>
<g>
	<circle class="st0" cx="62.15" cy="62.15" r="62.15"/>
	<path class="st1" d="M62.15,2.94c-32.7,0-59.21,26.51-59.21,59.21c0,32.7,26.51,59.21,59.21,59.21c32.7,0,59.21-26.51,59.21-59.21
		C121.36,29.45,94.85,2.94,62.15,2.94z M62.15,118.11c-30.91,0-55.96-25.05-55.96-55.96S31.25,6.19,62.15,6.19
		c30.91,0,55.96,25.05,55.96,55.96S93.06,118.11,62.15,118.11z"/>
	<circle class="st1" cx="62.15" cy="62.15" r="43.19"/>
	<path d="M89.09,54.4l-5.35-13.31c0,0-5.24-2.39-21.58-2.39c-16.35,0-21.36,2.39-21.36,2.39L35.4,54.64l-3.35,3.95v13.01l2.53,3.91
		h1.82v10.07h7.33v-10.1h37.33v10.1h7.35v-10.1h1.62l2.17-3.65V58.42L89.09,54.4z M46.53,67.22H35.96l-1.42-1.38v-5.53l0.93-0.93
		h10.1l1.38,1.83l0.51,4.19L46.53,67.22z M39.6,54.79l4.14-10.15c0,0,18.71-4.48,36.92,0l4.08,10.15
		C59.32,52.46,39.6,54.79,39.6,54.79z M89.78,65.85l-1.42,1.38H77.79l-0.93-1.81l0.51-4.19l1.38-1.83h10.1l0.93,0.93V65.85z"/>
</g>
</svg>
