<?xml version="1.0" encoding="utf-8"?>
<!-- Generator: Adobe Illustrator 27.1.1, SVG Export Plug-In . SVG Version: 6.00 Build 0)  -->
<svg version="1.1" id="Laag_1" xmlns="http://www.w3.org/2000/svg" xmlns:xlink="http://www.w3.org/1999/xlink" x="0px" y="0px"
	 viewBox="0 0 124.3 124.3" style="enable-background:new 0 0 124.3 124.3;" xml:space="preserve">
<style type="text/css">
	.st0{fill:#DC0B10;}
	.st1{fill:#FFFFFF;}
</style>
<g>
	<circle class="st0" cx="62.15" cy="62.15" r="62.15"/>
	<path class="st1" d="M62.15,2.94c-32.7,0-59.21,26.51-59.21,59.21s26.51,59.21,59.21,59.21s59.21-26.51,59.21-59.21
		S94.85,2.94,62.15,2.94z M62.15,118.11c-30.91,0-55.96-25.05-55.96-55.96S31.25,6.19,62.15,6.19c30.91,0,55.96,25.05,55.96,55.96
		S93.06,118.11,62.15,118.11z"/>
	<circle class="st1" cx="62.15" cy="62.15" r="43.19"/>
	<g>
		<path d="M76.35,58.16c0,0,2.74-2.42,8.94-2.42c6.2,0,7.91,0,7.91,0v-3.32H71.79c0,0-1.09,0.23-1.09,1.29s0.96,1.4,0.96,1.4
			L76.35,58.16z"/>
		<path d="M83.92,56.99c-6.09,0-11.1,4.63-11.71,10.55l-7.76,0.44c-2.96,0.35-4.9-2.94-4.03-5.01c0.86-2.07,0-3.71,0-3.71
			l-4.01-5.68c-0.69-1.23-1.63-1.17-1.63-1.17H48.9l1.79-4.3c0,0,0.39-0.97,2.08-0.97s4.81,0,4.81,0v-3.3H51.8
			c0,0-2.66,0.02-4.08,2.6l-4.49,10.89l0,0c-0.89-0.22-1.82-0.34-2.78-0.34c-6.5,0-11.77,5.27-11.77,11.77
			c0,6.5,5.27,11.77,11.77,11.77c6.5,0,11.77-5.27,11.77-11.77c0-4.32-2.34-8.09-5.81-10.14l1.67-4l7.53,10.71
			c0,0,3.96,5.99,8.73,5.99c4.32,0,7.54,0,8.12,0c1.17,5.26,5.86,9.2,11.48,9.2c6.5,0,11.77-5.27,11.77-11.77
			C95.69,62.26,90.42,56.99,83.92,56.99z M49.22,68.76c0,4.85-3.93,8.78-8.78,8.78c-4.85,0-8.78-3.93-8.78-8.78
			c0-4.85,3.93-8.78,8.78-8.78c0.56,0,1.11,0.06,1.64,0.16l-3.25,8.01c0,0.01-0.01,0.02-0.01,0.03l-0.03,0.08l0.01,0
			c-0.06,0.17-0.1,0.36-0.1,0.55c0,0.92,0.75,1.67,1.67,1.67c0.67,0,1.23-0.39,1.5-0.95l0.01,0l0.02-0.05
			c0.01-0.01,0.01-0.03,0.02-0.04l3.33-8.02C47.63,62.99,49.22,65.69,49.22,68.76z M83.92,77.54c-3.95,0-7.3-2.62-8.39-6.21h11.06
			v-4.58L75.3,67.38l-0.03,0c0.67-4.19,4.28-7.39,8.66-7.39c4.85,0,8.78,3.93,8.78,8.78C92.7,73.61,88.77,77.54,83.92,77.54z"/>
	</g>
</g>
</svg>
