<?xml version="1.0" encoding="utf-8"?>
<!-- Generator: Adobe Illustrator 27.1.1, SVG Export Plug-In . SVG Version: 6.00 Build 0)  -->
<svg version="1.1" id="Laag_1" xmlns="http://www.w3.org/2000/svg" xmlns:xlink="http://www.w3.org/1999/xlink" x="0px" y="0px"
	 viewBox="0 0 41.53 41.53" style="enable-background:new 0 0 41.53 41.53;" xml:space="preserve">
<style type="text/css">
	.st0{fill:#FFFFFF;}
</style>
<path class="st0" d="M22.88,20.76l10.09-10.09c0.59-0.59,0.59-1.54,0-2.12c-0.59-0.59-1.54-0.59-2.12,0L20.76,18.64L10.68,8.56
	c-0.59-0.59-1.54-0.59-2.12,0c-0.59,0.59-0.59,1.54,0,2.12l10.09,10.09L8.56,30.85c-0.59,0.59-0.59,1.54,0,2.12
	c0.29,0.29,0.68,0.44,1.06,0.44s0.77-0.15,1.06-0.44l10.09-10.09l10.09,10.09c0.29,0.29,0.68,0.44,1.06,0.44s0.77-0.15,1.06-0.44
	c0.59-0.59,0.59-1.54,0-2.12L22.88,20.76z"/>
</svg>
