<?xml version="1.0" encoding="utf-8"?>
<!-- Generator: Adobe Illustrator 27.1.1, SVG Export Plug-In . SVG Version: 6.00 Build 0)  -->
<svg version="1.1" id="Laag_1" xmlns="http://www.w3.org/2000/svg" xmlns:xlink="http://www.w3.org/1999/xlink" x="0px" y="0px"
	 viewBox="0 0 41.53 41.53" style="enable-background:new 0 0 41.53 41.53;" xml:space="preserve">
<style type="text/css">
	.st0{fill:#FFFFFF;}
</style>
<g>
	<path class="st0" d="M36.01,22.26H5.51c-0.83,0-1.5-0.67-1.5-1.5s0.67-1.5,1.5-1.5h30.5c0.83,0,1.5,0.67,1.5,1.5
		S36.84,22.26,36.01,22.26z"/>
	<path class="st0" d="M36.01,11.88H5.51c-0.83,0-1.5-0.67-1.5-1.5s0.67-1.5,1.5-1.5h30.5c0.83,0,1.5,0.67,1.5,1.5
		S36.84,11.88,36.01,11.88z"/>
	<path class="st0" d="M36.01,32.65H5.51c-0.83,0-1.5-0.67-1.5-1.5s0.67-1.5,1.5-1.5h30.5c0.83,0,1.5,0.67,1.5,1.5
		S36.84,32.65,36.01,32.65z"/>
</g>
</svg>
