<?xml version="1.0" encoding="utf-8"?>
<!-- Generator: Adobe Illustrator 27.1.1, SVG Export Plug-In . SVG Version: 6.00 Build 0)  -->
<svg width="15" height="15" fill="#fff" version="1.1" id="Laag_1" xmlns="http://www.w3.org/2000/svg" xmlns:xlink="http://www.w3.org/1999/xlink" x="0px" y="0px"
	 viewBox="0 0 41.53 41.53" style="enable-background:new 0 0 41.53 41.53;" xml:space="preserve">

<path class="st0" d="M26.15,3.5c-6.55,0-11.88,5.33-11.88,11.88c0,2.74,0.94,5.25,2.5,7.26L3.94,35.47c-0.59,0.59-0.59,1.54,0,2.12
	c0.29,0.29,0.68,0.44,1.06,0.44s0.77-0.15,1.06-0.44l12.82-12.82c2.01,1.56,4.53,2.5,7.26,2.5c6.55,0,11.88-5.33,11.88-11.88
	S32.7,3.5,26.15,3.5z M26.15,24.26c-4.9,0-8.88-3.98-8.88-8.88c0-4.9,3.98-8.88,8.88-8.88s8.88,3.98,8.88,8.88
	C35.03,20.28,31.04,24.26,26.15,24.26z"/>
</svg>
