<?xml version="1.0" encoding="utf-8"?>
<!-- Generator: Adobe Illustrator 27.1.1, SVG Export Plug-In . SVG Version: 6.00 Build 0)  -->
<svg version="1.1" id="Laag_1" xmlns="http://www.w3.org/2000/svg" xmlns:xlink="http://www.w3.org/1999/xlink" x="0px" y="0px"
	 viewBox="0 0 41.53 41.53" style="enable-background:new 0 0 41.53 41.53;" xml:space="preserve">
<style type="text/css">
	.st0{fill:#FFFFFF;}
</style>
<path class="st0" d="M14.57,31.32c-0.38,0-0.77-0.15-1.06-0.44l-9.06-9.06c0,0,0,0,0,0c0,0,0,0,0,0c0,0,0,0,0,0c0,0,0,0,0,0
	c0,0,0,0,0,0c0,0,0,0,0,0c0,0,0,0,0,0c-0.18-0.19-0.31-0.42-0.37-0.66v0c0,0,0,0,0,0l0,0c-0.02-0.06-0.03-0.12-0.04-0.18l0,0
	c0,0,0,0,0,0v0c0,0,0,0,0,0c0,0,0,0,0,0c-0.03-0.25,0-0.5,0.1-0.75c0,0,0,0,0,0c0,0,0,0,0,0v0c0,0,0,0,0,0l0,0c0,0,0,0,0,0
	c0,0,0,0,0-0.01c0,0,0,0,0,0l0,0c0,0,0,0,0,0v0c0,0,0,0,0,0c0,0,0,0,0,0c0,0,0,0,0,0c0,0,0,0,0,0c0.08-0.18,0.19-0.34,0.32-0.47
	l9.05-9.05c0.59-0.59,1.54-0.59,2.12,0c0.59,0.59,0.59,1.54,0,2.12l-6.5,6.49h26.88c0.83,0,1.5,0.67,1.5,1.5s-0.67,1.5-1.5,1.5H9.13
	l6.5,6.5c0.29,0.29,0.44,0.68,0.44,1.06s-0.15,0.77-0.44,1.06S14.95,31.32,14.57,31.32z"/>
</svg>
