<?xml version="1.0" encoding="utf-8"?>
<!-- Generator: Adobe Illustrator 27.1.1, SVG Export Plug-In . SVG Version: 6.00 Build 0)  -->
<svg version="1.1" id="Laag_1" xmlns="http://www.w3.org/2000/svg" xmlns:xlink="http://www.w3.org/1999/xlink" x="0px" y="0px"
	 viewBox="0 0 151.68 362.27" style="enable-background:new 0 0 151.68 362.27;" xml:space="preserve">
<style type="text/css">
	.st0{fill:#BFBA9F;}
	.st1{fill:#1A1F3B;}
	.st2{fill:#BF9460;}
</style>
<g>
	<path class="st0" d="M33.86,359.21c-16.98,0-30.8-13.82-30.8-30.8V33.86c0-16.99,13.82-30.8,30.8-30.8h83.95
		c16.99,0,30.8,13.82,30.8,30.8V328.4c0,16.99-13.82,30.8-30.8,30.8H33.86z"/>
	<path class="st1" d="M117.81,6.12c15.32,0,27.74,12.42,27.74,27.74V328.4c0,15.32-12.42,27.74-27.74,27.74H33.86
		c-15.32,0-27.74-12.42-27.74-27.74V33.86c0-15.32,12.42-27.74,27.74-27.74H117.81 M117.81,0H33.86C15.19,0,0,15.19,0,33.86V328.4
		c0,18.67,15.19,33.86,33.86,33.86h83.95c18.67,0,33.86-15.19,33.86-33.86V33.86C151.68,15.19,136.48,0,117.81,0L117.81,0z"/>
</g>
<g>
	<g>
		<path class="st2" d="M20.31,49.38l3.48-1.2c1.32-0.45,2.57-1.11,3.72-1.95c4.48-3.11,5.29-6.77,5.29-12.89
			c0-1.17-0.08-2.17-0.26-3.34l-0.23-1.44h-4.54c-1.51,0-2.74,0.1-4.43,0.25l-2.56,0.22V18.78l2.36,0.37
			c1.58,0.25,3.19,0.38,4.63,0.38h21.88c1.35,0,3.13-0.15,3.52-0.27l1.12-0.33l0.89,0.79l4.62,4.33l-1.25,1.48
			c-0.48,0.57-1.13,1.41-1.39,1.85c-2.14,3.54-6.12,8.74-10.31,11.73L45.61,40l-3.36-2.68c-0.64,6.96-3.04,13.59-12.09,18.45
			l-1.2,0.64L20.31,49.38z M42.48,30.82c0.86-0.71,1.66-1.5,2.36-2.25h-2.36C42.48,28.57,42.48,30.45,42.48,30.82z"/>
		<path class="st1" d="M22.82,21.17c1.54,0.24,3.25,0.41,4.95,0.41h21.88c1.14,0,3.37-0.12,4.14-0.37l3.21,3
			c-0.45,0.53-1.22,1.5-1.58,2.11c-1.91,3.17-5.76,8.28-9.74,11.12l-4.22-3.37c3.25-1.99,6.41-5.56,7.47-7.55H27.77
			c-1.7,0-3.04,0.12-4.95,0.28V21.17 M40.44,29.7c0,10.07-0.2,18.35-11.25,24.28l-4.75-3.86c1.3-0.45,2.76-1.14,4.26-2.23
			c5.16-3.57,6.13-7.88,6.13-14.53c0-1.26-0.08-2.36-0.28-3.65H40.44 M18.74,16.4v4.77v5.64v4.44l4.42-0.37l0.35-0.03
			c1.71-0.14,2.83-0.24,4.26-0.24h2.79c0.14,0.95,0.19,1.76,0.19,2.74c0,6.32-0.98,8.83-4.37,11.18c-1.07,0.78-2.14,1.34-3.26,1.73
			l-6.96,2.39l5.71,4.64l4.75,3.86l2.11,1.71l2.39-1.28c8.25-4.43,11.42-10.3,12.64-16.43l1.78,1.42l2.51-1.79
			c4.44-3.17,8.63-8.63,10.87-12.34c0.18-0.29,0.75-1.05,1.2-1.58l2.5-2.96l-2.83-2.65l-3.21-3l-1.75-1.64l-2.2,0.7
			c-0.46,0.09-1.94,0.2-2.98,0.2H27.77c-1.34,0-2.84-0.12-4.32-0.36L18.74,16.4L18.74,16.4z"/>
	</g>
	<g>
		<path class="st2" d="M48.97,102.96c-0.38-0.99-0.81-2.11-1.32-3.32c-6.82,0.78-17.87,1.95-22.51,2.43l-5.73,0.72L17.8,92.55
			c0,0,2.44,0,2.46,0c1.26,0,2.81,0,4.06-0.03c2.34-6.22,5.43-16.17,6.48-19.91c0.57-2.1,0.78-3.24,0.91-4.4L31.98,66l11.09,2.3
			l-0.99,2.3c-0.65,1.49-1.2,2.91-1.69,4.35l-0.76,2.34c-1.25,3.86-3.18,9.8-4.78,14.38c2.71-0.28,5.71-0.61,8.66-0.95
			c-1.02-1.91-1.95-3.45-2.75-4.52l-1.58-2.12l9.08-3.7l0.92,1.4c2.83,4.31,7.07,12.36,9.07,17.23l0.75,1.83l-9.26,4.12
			L48.97,102.96z"/>
		<path class="st1" d="M33.74,68.45l6.46,1.34c-0.53,1.22-1.14,2.72-1.75,4.51c-1.3,3.98-4.59,14.29-6.62,19.73
			c4.95-0.49,10.72-1.14,14.82-1.62c-1.42-2.92-2.92-5.64-4.26-7.43l5.08-2.07c2.88,4.39,7.02,12.34,8.89,16.89l-5.48,2.44
			c-0.53-1.38-1.18-3.04-1.95-4.79c-6.58,0.77-18.88,2.07-23.99,2.6c-1.01,0.12-2.51,0.32-3.81,0.49l-0.93-5.93
			c1.38,0,3.13,0,4.47-0.04c0.32,0,0.73-0.04,1.1-0.04c2.36-6.01,5.85-17.13,7.02-21.36C33.34,71.09,33.58,69.83,33.74,68.45
			 M30.22,63.55l-0.52,4.42c-0.13,1.1-0.31,2.12-0.86,4.11c-0.96,3.45-3.7,12.26-5.94,18.43c-0.87,0.01-1.77,0.01-2.56,0.01
			c-0.05,0-0.1,0-0.14,0h-4.77l0.74,4.72l0.93,5.93l0.61,3.9l3.92-0.49c0.6-0.07,1.25-0.16,1.87-0.24c0.71-0.09,1.39-0.18,1.93-0.24
			c4.25-0.44,14.08-1.47,20.93-2.25c0.26,0.65,0.5,1.27,0.71,1.84l1.53,4.03l3.94-1.75l5.48-2.44l3.62-1.61l-1.51-3.67
			c-2.04-4.97-6.37-13.18-9.26-17.58l-1.84-2.8l-3.11,1.27l-5.08,2.07l-0.4,0.16c0.41-1.25,0.79-2.42,1.12-3.44l0.76-2.36
			c0.46-1.34,0.99-2.71,1.61-4.15l1.99-4.6l-4.91-1.02l-6.46-1.34L30.22,63.55L30.22,63.55z M37.82,89.3
			c0.28-0.82,0.56-1.66,0.84-2.5l0.46,0.62c0.34,0.45,0.7,0.99,1.09,1.62C39.41,89.13,38.61,89.22,37.82,89.3L37.82,89.3z"/>
	</g>
	<g>
		<path class="st2" d="M49.06,152.08c-2.09-2.9-5.09-6.33-8.55-9.8c-4.45,4.39-9.51,8.03-14.42,10.36l-1.33,0.63l-7.33-7.69
			l2.9-1.08c6.52-2.43,12.46-7.33,15.84-11.1c1.74-1.98,3.39-4.4,4.49-6.55H29.97c-1.09,0-2.46,0.11-3.47,0.19
			c-0.51,0.04-0.94,0.07-1.22,0.09l-2.14,0.1v-10.27l2.34,0.35c0.93,0.14,3.29,0.26,4.49,0.26H44.3c1.69,0,3.05-0.26,3.51-0.41
			l1.02-0.36l5.81,4.33l-1.19,1.63c-0.24,0.33-0.9,1.47-1.21,2.15c-0.75,1.72-2.69,5.9-5.51,10.02c3.73,3.41,7.93,7.88,10.18,10.62
			l1.26,1.53l-7.81,6.78L49.06,152.08z"/>
		<path class="st1" d="M48.48,119.1l3.33,2.48c-0.32,0.45-1.06,1.7-1.42,2.52c-1.38,3.17-3.65,7.51-6.37,11.16
			c4.02,3.49,8.93,8.69,11.33,11.61l-4.63,4.02c-2.64-3.65-6.41-7.79-10.23-11.49c-4.3,4.55-9.7,8.77-15.27,11.41l-4.18-4.39
			c6.54-2.43,12.83-7.39,16.65-11.65c2.68-3.05,5.16-7.07,6.05-9.95H29.97c-1.7,0-3.94,0.24-4.79,0.28v-5.76
			c1.1,0.16,3.57,0.28,4.79,0.28H44.3C46.04,119.63,47.67,119.38,48.48,119.1 M49.18,114.54l-2.04,0.71
			c-0.25,0.08-1.37,0.3-2.84,0.3H29.97c-1.1,0-3.37-0.12-4.19-0.24l-4.68-0.7v4.73v5.76v4.28l4.27-0.2c0.3-0.01,0.75-0.05,1.29-0.09
			c0.97-0.08,2.3-0.19,3.31-0.19h7.09c-0.75,1.11-1.59,2.2-2.44,3.17c-3.04,3.4-8.82,8.22-15.01,10.52l-5.8,2.16l4.27,4.48
			l4.18,4.39l2.04,2.14l2.67-1.27c4.57-2.17,9.26-5.42,13.5-9.34c2.79,2.89,5.19,5.7,6.94,8.13l2.61,3.62l3.37-2.93l4.63-4.02
			l2.99-2.6l-2.51-3.07c-2.04-2.49-5.66-6.37-9.11-9.64c2.39-3.76,4.05-7.32,4.74-8.91c0.23-0.52,0.8-1.49,0.98-1.75l2.3-3.25
			l-3.16-2.42l-3.33-2.48L49.18,114.54L49.18,114.54z"/>
	</g>
	<g>
		<path class="st2" d="M22.35,196.43l3.52-1.34c2.36-0.9,4.93-2.93,6.39-5.06c1.02-1.54,1.66-3.41,1.97-5.77H25.3
			c-1.38,0-3.08,0.11-3.75,0.16l-2.18,0.15v-9.76l2.24,0.23c1.09,0.11,2.5,0.24,3.69,0.24h26.59c0.8,0,2.46-0.08,3.38-0.22
			l2.35-0.36v9.87l-2.2-0.18c-0.99-0.08-2.48-0.12-3.53-0.12h-7.91c-0.39,3.54-1.26,6.61-2.66,9.33c-1.69,3.35-5.25,6.76-9.05,8.68
			l-1.11,0.56L22.35,196.43z M24.07,164.29l2.35,0.36c1.08,0.16,2.59,0.26,4.04,0.26h16.32c1.46,0,2.95-0.1,4.09-0.26l2.34-0.34
			v9.77l-2.16-0.13c-1.34-0.08-2.88-0.16-4.26-0.16H30.5c-1.63,0-3.52,0.11-4.25,0.16l-2.17,0.14V164.29z"/>
		<path class="st1" d="M51.16,166.67v5.24c-1.38-0.08-2.96-0.16-4.38-0.16H30.5c-1.42,0-3.13,0.08-4.39,0.16v-5.24
			c1.34,0.2,3,0.28,4.34,0.28h16.32C48.15,166.95,49.78,166.87,51.16,166.67 M55.58,177.06v5.28c-1.01-0.08-2.56-0.12-3.69-0.12
			h-9.79c-0.24,4.18-1.14,7.59-2.6,10.43c-1.42,2.8-4.55,5.97-8.16,7.79L26.6,197c2.88-1.1,5.72-3.45,7.35-5.81
			c1.66-2.52,2.36-5.56,2.52-8.97H25.3c-1.22,0-2.76,0.08-3.9,0.16v-5.32c1.22,0.12,2.64,0.25,3.9,0.25h26.59
			C52.74,177.3,54.53,177.22,55.58,177.06 M22.03,161.92v4.75v5.24v1.12c-0.08-0.01-0.15-0.01-0.22-0.02l-4.49-0.45v4.51v5.32v4.38
			l4.37-0.31c0.65-0.05,2.3-0.15,3.61-0.15h6.43c-0.3,1.01-0.69,1.89-1.19,2.64c-1.19,1.72-3.42,3.49-5.4,4.24l-7.04,2.68l6.1,4.43
			l4.75,3.45l2.02,1.46l2.22-1.12c4.23-2.14,8.05-5.81,9.96-9.59c1.26-2.44,2.13-5.15,2.62-8.2h6.13c1.19,0,2.57,0.04,3.37,0.11
			l4.41,0.36v-4.42v-5.28v-4.76l-4.43,0.69v-1.08v-5.24v-4.73l-4.68,0.69c-1.04,0.15-2.42,0.24-3.79,0.24H30.45
			c-1.35,0-2.75-0.09-3.73-0.24L22.03,161.92L22.03,161.92z"/>
	</g>
	<g>
		<path class="st2" d="M37.3,246.41l0.25-1.21c0.07-0.31,0.28-1.43,0.28-2.59v-23.67c0-1.5-0.22-2.79-0.26-2.99l-0.73-2.13
			l-0.4,2.06c-0.03,0.17-0.25,1.78-0.25,3.3c0,8.74-0.43,14.79-1.29,17.98c-1.28,4.84-3.99,9.21-7.84,12.65l-1.18,1.05l-8.75-5.81
			l2.44-1.72c3.72-2.62,5.44-6.56,6.14-8.67c1.08-3.3,1.08-11.5,1.08-15.44c0-1.38-0.09-2.36-0.31-3.26l-0.6-2.51h10.83l-0.07-0.2
			l2.91,0.16h8.91l-0.89,2.58c-0.06,0.34-0.22,1.57-0.22,2.99v17.76c2.35-1.6,4.65-3.86,6.31-6.26l1.67-2.41l5.67,8.09l-0.91,1.19
			c-3.75,4.88-9.96,9.37-14.46,11.66c-0.65,0.36-1.01,0.66-1.32,0.93l-1.3,1.16L37.3,246.41z"/>
		<path class="st1" d="M45.6,215.45c-0.04,0.12-0.28,1.71-0.28,3.53v21.23c3.29-1.42,7.31-4.63,10.03-8.57l3.13,4.47
			c-3.37,4.39-9.22,8.77-13.76,11.08c-0.89,0.49-1.38,0.89-1.75,1.22l-3.41-2.8c0.16-0.77,0.32-1.91,0.32-3v-23.67
			c0-1.83-0.28-3.37-0.32-3.49H45.6 M34.43,215.49c-0.04,0.2-0.28,1.99-0.28,3.7c0,4.79-0.12,13.36-1.22,17.46
			c-1.22,4.59-3.78,8.57-7.23,11.65l-4.95-3.29c3.57-2.52,5.76-6.25,6.9-9.7c1.14-3.49,1.18-11.17,1.18-16.08
			c0-1.62-0.12-2.72-0.36-3.74H34.43 M39.41,211.33l-2.44,0.04h-3.13l0.01,0.04h-5.38h-5.17l1.2,5.03c0.12,0.52,0.25,1.26,0.25,2.79
			c0,3.54,0,11.81-0.98,14.81c-0.61,1.86-2.13,5.35-5.37,7.63l-4.87,3.43l4.97,3.3l4.95,3.29l2.63,1.75l2.35-2.1
			c3.27-2.92,5.77-6.47,7.37-10.41v1.68c0,0.76-0.12,1.62-0.24,2.17l-0.51,2.42l1.91,1.57l3.41,2.8l2.69,2.21l2.61-2.31
			c0.2-0.18,0.42-0.37,0.95-0.67c4.69-2.4,11.16-7.09,15.09-12.2l1.82-2.37l-1.72-2.45l-3.13-4.47l-3.37-4.81l-3.34,4.83
			c-0.78,1.13-1.66,2.16-2.59,3.08v-13.42c0-1.1,0.11-2.08,0.17-2.51l1.76-5.11H45.6h-6.05H39.4L39.41,211.33L39.41,211.33z"/>
	</g>
	<g>
		<path class="st2" d="M21.35,293.89l3.51-1.08c4.87-1.49,8.83-3.64,12.26-6.67c-1.82-1.28-3.67-2.53-5.3-3.59l-0.88-0.57
			c-1.26,1.11-2.55,2.12-3.83,3.01l-1.23,0.85l-7.89-6.13l2.5-1.54c7.48-4.62,11.08-10.76,12.26-12.78
			c0.55-0.87,1.31-2.54,1.61-3.71l0.54-2.06l10.57,3.28l-1.57,2.28c-0.21,0.3-0.42,0.62-0.62,0.94h4.67c-0.4-0.7-0.78-1.31-1.11-1.8
			l-1.44-2.09l7.07-2.87l0.06,0.09l4.73-1.97l0.94,1.37c1.12,1.64,2.67,4.29,3.42,5.74l0.99,1.92l-5.31,2.35l1.05,0.65l-0.93,1.7
			c-0.47,0.86-0.93,1.85-1.21,2.63c-1.09,3.39-2.93,7.15-5.13,10.52c1.2,0.88,2.21,1.65,3.02,2.3l1.64,1.31l-6.64,7.81l-1.56-1.44
			c-0.69-0.64-1.61-1.43-2.73-2.36c-4.01,3.88-8.58,6.76-13.92,8.78l-1.14,0.43L21.35,293.89z M37.55,275.37
			c1.81,1.02,3.88,2.35,5.72,3.57c0.85-1.38,1.59-2.8,2.15-4.09h-7.75c-0.11,0.14-0.22,0.27-0.33,0.41L37.55,275.37z"/>
		<path class="st1" d="M56.52,260.01c1.05,1.54,2.56,4.1,3.29,5.52l-3.21,1.42c-0.85-1.71-2.15-4.06-3.29-5.6L56.52,260.01
			 M51.73,261.88c1.01,1.46,2.48,4.06,3.21,5.56l-2.27,0.98l2.96,1.83c-0.45,0.81-0.97,1.91-1.34,2.92
			c-1.06,3.29-3.09,7.63-6.01,11.69c1.75,1.26,3.33,2.44,4.55,3.41l-3.9,4.59c-1.1-1.01-2.6-2.27-4.26-3.61
			c-3.57,3.78-8.16,7.23-14.49,9.62l-4.71-4.1c7.03-2.15,11.53-5.44,14.86-8.85c-2.64-1.91-5.32-3.73-7.39-5.08l3.61-3.69
			c2.15,1.22,4.71,2.88,7.31,4.63c2.07-2.96,3.82-6.46,4.43-8.97H36.67c-2.84,3.78-6.62,7.67-10.72,10.51l-4.39-3.41
			c7.11-4.39,10.88-9.95,12.95-13.48c0.61-0.97,1.46-2.84,1.83-4.22l5.89,1.83c-0.98,1.42-2.03,3.25-2.52,4.14h8.28
			c1.1,0,2.28-0.12,3.17-0.36c-0.77-1.54-1.75-3.33-2.64-4.63L51.73,261.88 M58.01,254.97l-3.07,1.28l-1.68,0.7l-0.05-0.07
			l-3.03,1.23l-3.21,1.3l-2.57,1.04l-0.98-0.3l-5.89-1.83l-4.07-1.26l-1.09,4.12c-0.25,0.93-0.92,2.43-1.34,3.1l-0.03,0.05
			l-0.03,0.05c-1.94,3.31-5.25,8.17-11.57,12.07l-5,3.09l4.64,3.61l4.39,3.41l2.37,1.84l2.46-1.71c0.95-0.66,1.9-1.38,2.84-2.15
			c0.83,0.54,1.71,1.13,2.61,1.74c-2.73,1.99-5.81,3.48-9.45,4.6l-7.03,2.15l5.54,4.83l4.71,4.1l1.84,1.6l2.28-0.86
			c5.02-1.9,9.38-4.52,13.26-7.96c0.49,0.42,0.91,0.8,1.28,1.13l3.12,2.89l2.76-3.24l3.9-4.59l2.72-3.2l-3.28-2.63
			c-0.47-0.37-0.99-0.78-1.57-1.22c1.83-3.06,3.35-6.33,4.34-9.38c0.25-0.68,0.64-1.53,1.05-2.28l1.41-2.56l0.85-0.38l3.96-1.75
			l-1.98-3.85c-0.77-1.49-2.34-4.2-3.55-5.96L58.01,254.97L58.01,254.97z"/>
	</g>
	<g>
		<path class="st2" d="M48.97,346.47c-0.38-0.99-0.81-2.11-1.32-3.32c-6.82,0.78-17.87,1.95-22.51,2.43l-5.73,0.72l-1.61-10.24
			c0,0,2.44,0,2.46,0c1.26,0,2.81,0,4.06-0.03c2.34-6.22,5.43-16.17,6.48-19.91c0.57-2.1,0.78-3.24,0.91-4.4l0.26-2.21l11.09,2.3
			l-1,2.3c-0.64,1.48-1.19,2.9-1.69,4.35l-0.76,2.34c-1.25,3.86-3.18,9.8-4.78,14.38c2.71-0.28,5.71-0.61,8.66-0.95
			c-1.02-1.91-1.95-3.45-2.75-4.52l-1.59-2.11l9.08-3.7l0.92,1.4c2.83,4.31,7.07,12.36,9.07,17.24l0.75,1.83l-9.26,4.12
			L48.97,346.47z"/>
		<path class="st1" d="M33.74,311.96l6.46,1.34c-0.53,1.22-1.14,2.72-1.75,4.51c-1.3,3.98-4.59,14.29-6.62,19.73
			c4.95-0.49,10.72-1.14,14.82-1.62c-1.42-2.92-2.92-5.64-4.26-7.43l5.08-2.07c2.88,4.39,7.02,12.34,8.89,16.89l-5.48,2.44
			c-0.53-1.38-1.18-3.04-1.95-4.79c-6.58,0.77-18.88,2.07-23.99,2.6c-1.01,0.12-2.51,0.32-3.81,0.49l-0.93-5.93
			c1.38,0,3.13,0,4.47-0.04c0.32,0,0.73-0.04,1.1-0.04c2.36-6.01,5.85-17.13,7.02-21.36C33.34,314.6,33.58,313.34,33.74,311.96
			 M30.22,307.06l-0.52,4.42c-0.13,1.1-0.31,2.12-0.86,4.11c-0.96,3.45-3.7,12.26-5.94,18.43c-0.87,0.01-1.77,0.01-2.56,0.01
			c-0.05,0-0.1,0-0.14,0h-4.77l0.74,4.72l0.93,5.93l0.61,3.9l3.92-0.49c0.6-0.07,1.25-0.16,1.87-0.24c0.71-0.09,1.39-0.18,1.93-0.24
			c4.25-0.44,14.08-1.47,20.93-2.25c0.26,0.65,0.5,1.27,0.71,1.84l1.53,4.03l3.94-1.75l5.48-2.44l3.62-1.61l-1.51-3.67
			c-2.04-4.97-6.37-13.18-9.26-17.58l-1.84-2.81l-3.11,1.27l-5.08,2.07l-0.4,0.16c0.41-1.25,0.79-2.42,1.12-3.44l0.76-2.36
			c0.46-1.35,0.99-2.72,1.61-4.15l2-4.6l-4.91-1.02l-6.46-1.34L30.22,307.06L30.22,307.06z M37.82,332.81
			c0.28-0.82,0.56-1.66,0.84-2.5l0.47,0.62c0.34,0.45,0.7,0.99,1.09,1.61C39.41,332.64,38.61,332.73,37.82,332.81L37.82,332.81z"/>
	</g>
</g>
<g>
	<g>
		<path class="st2" d="M95.87,183.78c-0.3-0.71-0.82-1.61-1.43-2.51H83.72v2.63H73.25v-26.53h0.2v-16.99h-2.9v-10.27h3.29v-8.82
			h21.79v2.9h12.78v-4.94h11.85v4.94h14.49v10.4h-1.98V144h2.44v16.66h-9.42c0,0,0,12.75,0,12.77h0.49c0.22-1.52,0.28-4.93,0.3-6.36
			l0.08-4.21l3.26,2.67c1.1,0.9,3.81,2,5.69,2.5l1.62,0.43l-0.11,1.68c-0.62,9.18-2.26,14.15-9.15,14.15h-4.41
			c-7.6,0-9.09-3.98-9.09-10.86v-19.23h-0.16l-0.04,1.13c-0.5,13.23-1.98,23.8-15.74,29.53l-1.87,0.78L95.87,183.78z M95.9,173.26
			c4.62-2.61,6.09-6.28,6.67-12.6H95.9V173.26z M85.37,171.07v-3.49h-1.65v3.49H85.37z M97.02,144v-3.62h-1.25V144H97.02z"/>
		<path class="st1" d="M118.22,121.29v4.94h14.49v6.32h-14.49v3.95h12.51v6.32H99.06v-6.32h11.39v-3.95H96.89v-6.32h13.57v-4.94
			H118.22 M93.6,123.33v5.93H75.89v-5.93H93.6 M95.71,132.15v6.19H72.59v-6.19H95.71 M93.73,141.3v5.99H75.49v-5.99H93.73
			 M133.17,146.05v12.58h-7.24v-6.45h-22.85v6.45h-6.91v-12.58H133.17 M93.73,150.33v5.86H75.49v-5.86H93.73 M112.23,155.26
			c-0.53,13.76-2.31,22.65-14.49,27.72c-0.73-1.71-2.44-4.21-3.89-5.73v1.97H81.68v2.63h-6.39v-22.45h18.57v17.05
			c9.75-3.82,10.67-10.21,11.06-21.2H112.23 M81.68,173.11h5.73v-7.57h-5.73V173.11 M123.76,155.33v18.04
			c0,1.91,0.13,2.11,1.12,2.11h2.31c1.05,0,1.32-1.05,1.45-8.36c1.45,1.19,4.48,2.37,6.45,2.9c-0.66,9.75-2.37,12.25-7.11,12.25
			h-4.41c-5.73,0-7.05-2.17-7.05-8.82v-18.11H123.76 M122.31,117.21h-4.08h-7.77h-4.08v4.08v0.86h-8.7v-2.9H93.6H75.89H71.8v4.08
			v4.74h-3.29v4.08v6.19v4.08h2.9v4.88v4.08v3.95h-0.2v4.08v22.45v4.08h4.08h6.39h4.08v-2.63h7.56c0.28,0.47,0.51,0.9,0.67,1.27
			l1.58,3.73l3.74-1.56c6.72-2.8,10.73-6.72,13.16-11.42c0.29,5.93,2.23,11.01,11.08,11.01h4.41c9.32,0,10.63-7.93,11.18-16.05
			l0.23-3.35l-3.24-0.87c-1.99-0.53-4.24-1.55-4.92-2.11l-1.53-1.26h3.49h4.08v-4.08v-12.58v-4.08h-2.44v-5.34h1.98v-4.08v-6.32
			v-4.08h-4.08h-10.41v-0.86V117.21L122.31,117.21z M97.94,162.7h2.32c-0.42,2.77-1.11,4.75-2.32,6.29V162.7L97.94,162.7z"/>
	</g>
	<g>
		<path class="st2" d="M76.26,263.42c-0.95-0.89-3.57-2.54-4.84-3.12l-2.16-0.98l1.29-1.99c3.88-5.96,4.41-14.51,4.41-22.86v-8.87
			c-1.32-1.21-3.18-2.69-4.23-3.39l-2-1.33l1.64-1.76c4-4.29,7.45-11.5,9.25-19.28l0.45-1.95l10.95,2.29l-0.51,2.06
			c-0.18,0.73-0.37,1.44-0.57,2.14h2.87l1.58-0.53l6.69,4.14l-0.56,1.56c-0.63,1.75-1.42,3.67-2.29,5.57h6.16v2.48
			c1.95-1.52,3.04-3.37,3.72-5.51h-6.81v-10.47h33.4l-0.09,2.12c0,0-0.07,1.7-0.14,2.58c-0.35,11.35-1.02,15.71-2.75,17.85
			c-1.69,2.08-3.62,2.64-5.28,2.91c-0.4,0.05-0.86,0.1-1.38,0.14v2.19h9.88v10.67h-9.88v1.85h11.19v10.8h-11.19v10.87h-11.52v-10.87
			h-9.15v1.51c0,2.95-0.42,6.2-3.54,7.97c-2.43,1.33-5.3,1.58-9.76,1.58h-1.84l-0.19-1.83c-0.16-1.52-1.07-4.21-1.99-5.87
			l-1.79-3.21l3.67,0.18c1.92,0.1,3.8,0.12,4.97,0.13l0-6.52h-9.25c-0.9,6.78-2.68,12.28-5.29,16.38l-1.33,2.07L76.26,263.42z
			 M113.55,241.92v-1.85h-2.08c-0.3,0.66-0.6,1.27-0.9,1.85H113.55z M113.55,225.21V224c-0.33,0.34-0.68,0.67-1.05,1L113.55,225.21z
			 M117.18,223.48c-0.22-1.07-0.55-2.11-0.92-2.91c-0.63,1-1.36,1.98-2.22,2.91H117.18z M118.07,216.92
			c1.88,0.18,3.51,0.24,4.37,0.24c0.08,0,0.14,0,0.19,0c0.18-0.47,0.41-1.78,0.62-5.07h-3.78
			C119.15,213.65,118.71,215.29,118.07,216.92z M87.05,215.12c0.1-0.24,0.19-0.48,0.28-0.73H86.3c-0.11,0.24-0.22,0.48-0.32,0.73
			H87.05z"/>
		<path class="st1" d="M81.61,200.3l6.91,1.45c-0.39,1.58-0.85,3.16-1.38,4.67h5.99l0.99-0.33l4.48,2.77
			c-0.92,2.57-2.24,5.6-3.62,8.3h7.37v4.02c5.47-2.5,7.44-6.32,8.36-11.13h-7.37v-6.39h29.24c0,0-0.07,1.65-0.13,2.5
			c-0.33,10.47-0.92,15.01-2.3,16.73c-1.12,1.38-2.37,1.91-4.02,2.17c-1.09,0.15-2.8,0.22-4.7,0.22c-0.63,0-1.29-0.01-1.95-0.02
			c-0.13-2.04-0.79-4.68-1.78-6.32c2.04,0.2,3.82,0.27,4.74,0.27c0.79,0,1.32-0.13,1.78-0.73c0.59-0.73,0.92-2.96,1.18-8.43h-7.64
			c-1.12,6.85-3.62,12.31-10.34,16l5.86,1.19c-0.26,1.38-0.53,2.83-0.92,4.21h3.23v-5.93h7.44v5.93h9.88v6.59h-9.88v5.93h11.19v6.72
			h-11.19v10.87h-7.44v-10.87h-12.18v-6.72h12.18v-5.93h-5.46c-0.79,1.91-1.65,3.62-2.63,5.07c-1.12-0.79-3.49-2.04-5.14-2.77v13.89
			c0,3.1-0.53,5.07-2.5,6.19c-2.04,1.12-4.74,1.32-8.76,1.32c-0.2-1.91-1.25-4.87-2.24-6.65c2.63,0.13,5.2,0.13,5.99,0.13
			c0.79,0,1.12-0.26,1.12-1.12v-9.48h-13.1c-0.66,6.19-2.17,12.58-5.2,17.32c-1.12-1.05-3.95-2.83-5.4-3.49
			c4.41-6.78,4.74-16.59,4.74-23.97v-9.75c-1.32-1.32-3.75-3.29-5.14-4.21C76.35,215.71,79.84,208.01,81.61,200.3 M90.24,212.35
			h-5.27c-0.73,1.65-1.45,3.29-2.24,4.81h5.66C89.06,215.71,89.65,214,90.24,212.35 M102.36,239.22c2.17-3.43,3.75-8.17,4.54-12.84
			c-0.46,0.2-0.92,0.46-1.38,0.66c-0.59-1.32-1.91-3.16-3.16-4.48V239.22 M92.22,227.83h3.75v-4.94h-3.75V227.83 M83.33,227.83h3.69
			v-4.94h-3.69V227.83 M92.22,238.82h3.75v-5.46h-3.75V238.82 M83.26,238.82h3.75v-5.46h-3.69v1.12
			C83.33,235.86,83.33,237.31,83.26,238.82 M78.54,195.49l-0.9,3.9c-1.72,7.45-4.99,14.31-8.76,18.35l-3.27,3.51l3.99,2.66
			c0.79,0.53,2.17,1.61,3.32,2.61v7.96c0,5.02,0,15.47-4.08,21.74l-2.59,3.97l4.32,1.96c1.17,0.53,3.57,2.07,4.29,2.75l3.58,3.38
			l2.65-4.15c1.46-2.29,2.68-4.98,3.64-8.05l0.55,0.99c0.79,1.41,1.62,3.84,1.75,5.09l0.38,3.66h3.68c4.8,0,7.93-0.29,10.72-1.82
			c4.27-2.42,4.59-6.89,4.62-9.24h5.08v6.78v4.08h4.08h7.44h4.08v-4.08v-6.78h7.11h4.08v-4.08v-6.72v-4.08h-1.32v-1.85v-6.59v-4.08
			h-4.08h-1.63c0.7-0.49,1.39-1.11,2.04-1.91c2.1-2.6,2.82-6.88,3.21-19.08c0.07-0.93,0.13-2.55,0.13-2.55l0.18-4.25l-4.25,0h-29.24
			h-4.08v4.08v0.81l-2.99-1.85l-1.62-1l-1.81,0.6l-0.24,0.08l0.92-3.68l-4.15-0.87l-6.91-1.45L78.54,195.49L78.54,195.49z
			 M120.85,215.08c0.06-0.21,0.11-0.42,0.17-0.62c-0.02,0.23-0.05,0.44-0.07,0.63C120.91,215.08,120.88,215.08,120.85,215.08
			L120.85,215.08z M86.44,248.7h5.45v2.41c-0.87-0.02-1.84-0.05-2.83-0.1l-3.01-0.15C86.19,250.16,86.32,249.44,86.44,248.7
			L86.44,248.7z"/>
	</g>
	<g>
		<path class="st2" d="M77.85,342.24c-1.1-1.74-3.89-4.53-5.63-5.85l-2.52-1.91l2.77-1.51c12.1-6.59,18.67-16.12,20.55-29.88H73.45
			v-12.11H93.6v-13.57h12.44v13.57h26.72l-0.05,2.09c-0.01,0.29-0.07,2.83-0.21,3.96c-1.38,27.57-2.73,36.71-6,40.57
			c-2.34,3.04-4.8,3.95-7.99,4.39c-1.41,0.19-3.31,0.29-5.66,0.29c-1.67,0-3.47-0.05-5.25-0.14l-1.84-0.09l-0.1-1.84
			c-0.11-1.92-1.02-5.09-2.35-7.07l-2.38-3.51l4.23,0.33c4.07,0.32,7.93,0.32,9.58,0.32c1.1,0,1.3-0.13,1.71-0.51
			c1.42-1.47,2.64-10.47,3.58-26.69H105.6c-1.87,18.33-10.07,31.37-25.03,39.84l-1.69,0.96L77.85,342.24z"/>
		<path class="st1" d="M104,279.45v13.57h26.67c0,0-0.07,2.7-0.2,3.75c-1.32,26.21-2.63,36.09-5.53,39.51
			c-1.97,2.57-3.89,3.29-6.72,3.69c-1.37,0.19-3.27,0.27-5.38,0.27c-1.64,0-3.4-0.05-5.16-0.13c-0.13-2.37-1.19-5.86-2.7-8.1
			c4.15,0.33,8.03,0.33,9.75,0.33c1.38,0,2.17-0.2,3.09-1.05c1.97-2.04,3.29-10.67,4.35-30.22h-18.44
			c-1.05,13.63-5.66,29.63-24.17,40.1c-1.25-1.97-4.21-4.94-6.13-6.39c16.33-8.89,20.74-22.19,21.86-33.71H75.49v-8.03h20.15v-13.57
			H104 M108.08,275.37H104h-8.36h-4.08v4.08v9.48H75.49h-4.08v4.08v8.03v4.08h4.08h15.13c-2.19,11.83-8.35,20.18-19.13,26.05
			l-5.55,3.02l5.03,3.82c1.72,1.31,4.27,3.94,5.14,5.32l2.08,3.28l3.38-1.91c7.08-4,12.7-8.99,16.91-15.02l3.12,4.6
			c1.12,1.66,1.92,4.43,2.01,6.04l0.2,3.67l3.67,0.18c1.89,0.09,3.69,0.14,5.36,0.14c2.44,0,4.44-0.1,5.93-0.3
			c3.6-0.5,6.56-1.57,9.35-5.17c3.6-4.35,4.99-13.4,6.42-41.73c0.14-1.24,0.2-3.53,0.21-3.99l0.1-4.18h-4.18h-22.59v-9.48V275.37
			L108.08,275.37z M107.42,305.13h10.43c-1.02,16.47-2.17,21.58-2.89,23.11c-0.06,0-0.14,0-0.23,0c-1.63,0-5.44,0-9.42-0.32
			l-5.39-0.43C103.85,321.15,106.34,313.72,107.42,305.13L107.42,305.13z"/>
	</g>
</g>
<g>
	<g>
		<path class="st2" d="M99.6,81.38c-3.53,4.43-7.53,6.71-11.91,6.71c-9.67,0-16.96-10.07-16.96-23.43c0-18.47,16.05-33.5,35.78-33.5
			c18.69,0,31.74,12.63,31.74,30.71c0,17-10.84,28.42-29.73,31.35l-1.33,0.21L99.6,81.38z M112.5,44.62
			c-0.98,5.73-2.19,11.83-4.12,18.06c-2.29,7.71-5.06,13.73-8.23,17.98l2.31-0.25c2.62-0.28,4.54-0.68,6.61-1.14
			c9.49-2.22,15.16-8.84,15.16-17.71C124.24,52.9,119.9,46.7,112.5,44.62z M98.37,45.17C88.64,48.55,84.22,57.7,84.22,63.7
			c0,6.2,2.2,8.98,3.77,8.98c0.71,0,3.32-0.95,7.01-13.11C96.41,55.06,97.58,50.05,98.37,45.17z"/>
		<path class="st1" d="M106.51,33.19c18.23,0,29.7,12.64,29.7,28.67c0,15.51-9.48,26.46-28.01,29.33l-5.51-8.75
			c2.79-0.29,4.85-0.74,6.84-1.18c9.41-2.2,16.76-8.97,16.76-19.7c0-10.15-5.51-17.72-15.44-19.41c-1.03,6.25-2.28,13.01-4.41,19.92
			c-4.41,14.85-10.73,23.96-18.74,23.96c-8.16,0-14.92-8.97-14.92-21.39C72.77,47.67,87.47,33.19,106.51,33.19 M100.85,42.38
			c-12.13,2.5-18.67,13.23-18.67,21.32c0,7.42,2.94,11.02,5.81,11.02c3.09,0,5.95-4.63,8.97-14.55
			C98.65,54.73,100.04,48.48,100.85,42.38 M106.51,29.11c-20.85,0-37.82,15.94-37.82,35.54c0,14.52,8.17,25.47,19,25.47
			c4.31,0,8.21-1.77,11.67-5.3l5.38,8.54l1.43,2.27l2.65-0.41c19.99-3.1,31.46-15.26,31.46-33.36
			C140.29,42.89,126.08,29.11,106.51,29.11L106.51,29.11z M104.29,78.13c2.27-3.98,4.29-8.94,6.06-14.88
			c1.68-5.45,2.83-10.79,3.75-15.89c5.2,2.33,8.11,7.32,8.11,14.21c0,3.77-1.33,12.85-13.61,15.73
			C107.2,77.6,105.86,77.89,104.29,78.13L104.29,78.13z M87.94,70.48c-0.57-0.59-1.68-2.53-1.68-6.78c0-6.77,4.52-11.93,9.37-14.85
			c-0.7,3.47-1.58,6.92-2.57,10.11C90.49,67.41,88.64,69.82,87.94,70.48L87.94,70.48z"/>
	</g>
</g>
</svg>
